<svg width="367" height="245" viewBox="0 0 367 245" fill="none" xmlns="http://www.w3.org/2000/svg">
<path d="M284.088 148.549C285.513 174.562 234.668 227.401 172.059 207.82C142.912 198.701 145.395 183.599 123.25 163.733C110.061 151.887 91.0899 142.89 85.7979 125.671C81.2389 110.771 84.0479 94.771 91.9449 84.393C109.734 60.986 145.598 44.947 180.933 81.828C216.268 118.669 280.424 81.502 284.088 148.549Z" fill="white"/>
<path d="M270.86 81.425C265.853 90.34 254.943 91.561 237.439 89.852C224.29 88.59 212.281 87.572 199.092 80.408C190.69 75.7537 183.278 69.5034 177.272 62.008C171.491 54.843 163.472 46.702 167.38 38.601C172.794 27.488 204.18 18.084 234.63 33.431C268.13 50.284 275.745 72.714 270.86 81.431V81.425Z" fill="url(#paint0_linear_0_1927)"/>
<path fill-rule="evenodd" clip-rule="evenodd" d="M241.143 182.259C241.143 171.647 249.746 163.044 260.357 163.044C270.969 163.044 279.572 171.647 279.572 182.259M279.572 182.259C279.572 192.871 270.969 201.473 260.357 201.473C249.746 201.473 241.143 192.871 241.143 182.259" fill="#7853FF"/>
<path d="M255.385 176.805C255.385 175.977 254.713 175.305 253.885 175.305C253.057 175.305 252.385 175.977 252.385 176.805H255.385ZM252.385 180.835C252.385 181.663 253.057 182.335 253.885 182.335C254.713 182.335 255.385 181.663 255.385 180.835H252.385ZM268.285 176.805C268.285 175.977 267.613 175.305 266.785 175.305C265.957 175.305 265.285 175.977 265.285 176.805H268.285ZM265.285 180.835C265.285 181.663 265.957 182.335 266.785 182.335C267.613 182.335 268.285 181.663 268.285 180.835H265.285ZM267.874 188.61C268.526 188.098 268.639 187.155 268.128 186.504C267.616 185.852 266.673 185.739 266.022 186.25L267.874 188.61ZM254.685 186.25C254.034 185.739 253.091 185.852 252.579 186.504C252.068 187.155 252.181 188.098 252.833 188.61L254.685 186.25ZM252.385 176.805V180.835H255.385V176.805H252.385ZM265.285 176.805V180.835H268.285V176.805H265.285ZM266.022 186.25C262.694 188.862 258.013 188.862 254.685 186.25L252.833 188.61C257.248 192.076 263.459 192.076 267.874 188.61L266.022 186.25Z" fill="white"/>
<path fill-rule="evenodd" clip-rule="evenodd" d="M103.427 187.022C92.7928 187.022 84.172 178.401 84.172 167.767C84.172 157.133 92.7928 148.512 103.427 148.512C114.061 148.512 122.682 157.133 122.682 167.767C122.675 178.398 114.058 187.015 103.427 187.022Z" fill="#FEB220"/>
<path d="M108.923 165.162L102.043 172.205L97.891 167.971" stroke="white" stroke-width="3" stroke-linecap="round" stroke-linejoin="round"/>
<path d="M109.736 122.784L101.92 130.6C101.786 130.737 101.602 130.814 101.411 130.814C101.219 130.814 101.036 130.737 100.902 130.6C100.765 130.466 100.688 130.282 100.688 130.091C100.688 129.899 100.765 129.716 100.902 129.582L108.718 121.766C108.852 121.629 109.035 121.552 109.227 121.552C109.418 121.552 109.602 121.629 109.736 121.766C109.873 121.9 109.95 122.083 109.95 122.275C109.95 122.467 109.873 122.65 109.736 122.784Z" fill="#E1E4E5"/>
<path d="M104.974 122.744L102.735 124.983C102.601 125.12 102.417 125.197 102.226 125.197C102.035 125.197 101.851 125.12 101.717 124.983C101.58 124.849 101.503 124.666 101.503 124.474C101.503 124.283 101.58 124.099 101.717 123.965L103.956 121.726C104.09 121.589 104.274 121.512 104.465 121.512C104.656 121.512 104.84 121.589 104.974 121.726C105.111 121.86 105.188 122.043 105.188 122.235C105.188 122.427 105.111 122.61 104.974 122.744Z" fill="#E1E4E5"/>
<path d="M289.016 98.848L281.2 106.623C281.066 106.76 280.882 106.837 280.691 106.837C280.499 106.837 280.316 106.76 280.182 106.623C280.045 106.489 279.968 106.305 279.968 106.114C279.968 105.923 280.045 105.739 280.182 105.605L287.994 97.79C288.128 97.6533 288.311 97.5763 288.503 97.5763C288.694 97.5763 288.878 97.6533 289.012 97.79C289.298 98.0841 289.3 98.5517 289.016 98.848Z" fill="#E1E4E5"/>
<path d="M284.253 98.807L282.014 101.046C281.88 101.183 281.696 101.26 281.505 101.26C281.314 101.26 281.13 101.183 280.996 101.046C280.859 100.912 280.782 100.729 280.782 100.537C280.782 100.345 280.859 100.162 280.996 100.028L283.235 97.789C283.369 97.6523 283.553 97.5753 283.744 97.5753C283.935 97.5753 284.119 97.6523 284.253 97.789C284.39 97.9231 284.467 98.1065 284.467 98.298C284.467 98.4895 284.39 98.6729 284.253 98.807Z" fill="#E1E4E5"/>
<path d="M221.44 168.296L213.624 176.112C213.49 176.249 213.307 176.326 213.115 176.326C212.924 176.326 212.74 176.249 212.606 176.112C212.469 175.978 212.392 175.795 212.392 175.603C212.392 175.412 212.469 175.228 212.606 175.094L220.418 167.279C220.552 167.142 220.736 167.065 220.927 167.065C221.119 167.065 221.302 167.142 221.436 167.279C221.573 167.413 221.65 167.595 221.651 167.787C221.652 167.978 221.576 168.161 221.44 168.296Z" fill="#E1E4E5"/>
<path d="M216.636 168.255L214.397 170.494C214.263 170.631 214.079 170.708 213.888 170.708C213.696 170.708 213.513 170.631 213.379 170.494C213.242 170.36 213.165 170.177 213.165 169.985C213.165 169.793 213.242 169.61 213.379 169.476L215.618 167.237C215.752 167.1 215.935 167.023 216.127 167.023C216.318 167.023 216.502 167.1 216.636 167.237C216.773 167.371 216.85 167.555 216.85 167.746C216.85 167.938 216.773 168.121 216.636 168.255Z" fill="#E1E4E5"/>
<path d="M152.439 168.296L144.623 176.112C144.489 176.249 144.305 176.326 144.114 176.326C143.922 176.326 143.739 176.249 143.605 176.112C143.468 175.978 143.391 175.795 143.391 175.603C143.391 175.412 143.468 175.228 143.605 175.094L151.421 167.278C151.555 167.141 151.738 167.064 151.93 167.064C152.121 167.064 152.305 167.141 152.439 167.278C152.576 167.412 152.653 167.596 152.653 167.787C152.653 167.979 152.576 168.162 152.439 168.296Z" fill="#E1E4E5"/>
<path d="M147.677 168.255L145.438 170.494C145.304 170.631 145.12 170.708 144.929 170.708C144.738 170.708 144.554 170.631 144.42 170.494C144.283 170.36 144.206 170.177 144.206 169.985C144.206 169.794 144.283 169.61 144.42 169.476L146.659 167.237C146.793 167.1 146.977 167.023 147.168 167.023C147.359 167.023 147.543 167.1 147.677 167.237C147.814 167.371 147.891 167.555 147.891 167.746C147.891 167.938 147.814 168.121 147.677 168.255Z" fill="#E1E4E5"/>
<path fill-rule="evenodd" clip-rule="evenodd" d="M86.615 77.435H88.325C88.5196 77.4342 88.7065 77.5112 88.8442 77.6488C88.9818 77.7865 89.0588 77.9734 89.058 78.168V79.878C89.0588 80.0727 88.9818 80.2596 88.8442 80.3972C88.7065 80.5349 88.5196 80.6118 88.325 80.611H86.615C86.4203 80.6118 86.2334 80.5349 86.0958 80.3972C85.9582 80.2596 85.8812 80.0727 85.882 79.878V78.168C85.8668 77.9694 85.9392 77.774 86.0801 77.6331C86.2209 77.4922 86.4163 77.4199 86.615 77.435ZM92.515 77.435H94.225C94.4196 77.4342 94.6065 77.5112 94.7442 77.6488C94.8818 77.7865 94.9588 77.9734 94.958 78.168V79.878C94.9588 80.0727 94.8818 80.2596 94.7442 80.3972C94.6065 80.5349 94.4196 80.6118 94.225 80.611H92.515C92.3203 80.6118 92.1334 80.5349 91.9958 80.3972C91.8582 80.2596 91.7812 80.0727 91.782 79.878V78.168C91.7812 77.973 91.8584 77.7858 91.9965 77.6481C92.1346 77.5104 92.322 77.4337 92.517 77.435H92.515ZM98.415 77.435H100.125C100.32 77.4342 100.507 77.5112 100.644 77.6488C100.782 77.7865 100.859 77.9734 100.858 78.168V79.878C100.859 80.0727 100.782 80.2596 100.644 80.3972C100.507 80.5349 100.32 80.6118 100.125 80.611H98.415C98.2203 80.6118 98.0334 80.5349 97.8958 80.3972C97.7582 80.2596 97.6812 80.0727 97.682 79.878V78.168C97.6812 77.9734 97.7582 77.7865 97.8958 77.6488C98.0334 77.5112 98.2203 77.4342 98.415 77.435ZM104.315 77.435H106.025C106.22 77.4342 106.407 77.5112 106.544 77.6488C106.682 77.7865 106.759 77.9734 106.758 78.168V79.878C106.759 80.0727 106.682 80.2596 106.544 80.3972C106.407 80.5349 106.22 80.6118 106.025 80.611H104.315C104.12 80.6118 103.933 80.5349 103.796 80.3972C103.658 80.2596 103.581 80.0727 103.582 79.878V78.168C103.581 77.972 103.659 77.7838 103.799 77.646C103.938 77.5081 104.127 77.4321 104.323 77.435H104.315ZM110.258 77.435H111.968C112.163 77.4342 112.35 77.5112 112.487 77.6488C112.625 77.7865 112.702 77.9734 112.701 78.168V79.878C112.702 80.0727 112.625 80.2596 112.487 80.3972C112.35 80.5349 112.163 80.6118 111.968 80.611H110.258C110.063 80.6118 109.876 80.5349 109.739 80.3972C109.601 80.2596 109.524 80.0727 109.525 79.878V78.168C109.517 77.9698 109.593 77.7774 109.734 77.6379C109.875 77.4984 110.068 77.4247 110.266 77.435H110.258ZM92.713 83.867H94.423C94.6176 83.8662 94.8045 83.9432 94.9422 84.0808C95.0798 84.2185 95.1568 84.4054 95.156 84.6V86.31C95.1568 86.5047 95.0798 86.6916 94.9422 86.8292C94.8045 86.9669 94.6176 87.0438 94.423 87.043H92.713C92.5183 87.0438 92.3314 86.9669 92.1938 86.8292C92.0562 86.6916 91.9792 86.5047 91.98 86.31V84.641C91.9753 84.2276 92.2999 83.8853 92.713 83.868V83.867ZM98.613 83.867H100.323C100.518 83.8662 100.705 83.9432 100.842 84.0808C100.98 84.2185 101.057 84.4054 101.056 84.6V86.31C101.057 86.5047 100.98 86.6916 100.842 86.8292C100.705 86.9669 100.518 87.0438 100.323 87.043H98.613C98.4183 87.0438 98.2314 86.9669 98.0938 86.8292C97.9562 86.6916 97.8792 86.5047 97.88 86.31V84.641C97.8753 84.2276 98.1999 83.8853 98.613 83.868V83.867ZM104.556 83.867H106.266C106.461 83.8662 106.648 83.9432 106.785 84.0808C106.923 84.2185 107 84.4054 106.999 84.6V86.31C107 86.5047 106.923 86.6916 106.785 86.8292C106.648 86.9669 106.461 87.0438 106.266 87.043H104.556C104.361 87.0438 104.174 86.9669 104.037 86.8292C103.899 86.6916 103.822 86.5047 103.823 86.31V84.641C103.806 84.4363 103.878 84.2343 104.02 84.0862C104.163 83.9381 104.362 83.8583 104.567 83.867H104.556ZM98.42 70.515H100.13C100.325 70.5142 100.512 70.5912 100.649 70.7288C100.787 70.8665 100.864 71.0534 100.863 71.248V72.958C100.864 73.1527 100.787 73.3396 100.649 73.4772C100.512 73.6149 100.325 73.6918 100.13 73.691H98.42C98.2253 73.6918 98.0384 73.6149 97.9008 73.4772C97.7632 73.3396 97.6862 73.1527 97.687 72.958V71.248C97.6862 71.0534 97.7632 70.8665 97.9008 70.7288C98.0384 70.5912 98.2253 70.5142 98.42 70.515ZM104.32 70.515H106.03C106.225 70.5142 106.412 70.5912 106.549 70.7288C106.687 70.8665 106.764 71.0534 106.763 71.248V72.958C106.764 73.1527 106.687 73.3396 106.549 73.4772C106.412 73.6149 106.225 73.6918 106.03 73.691H104.32C104.125 73.6918 103.938 73.6149 103.801 73.4772C103.663 73.3396 103.586 73.1527 103.587 72.958V71.248C103.586 71.0534 103.663 70.8665 103.801 70.7288C103.938 70.5912 104.125 70.5142 104.32 70.515ZM169.657 97.138H171.367C171.562 97.1372 171.749 97.2142 171.886 97.3518C172.024 97.4895 172.101 97.6764 172.1 97.871V99.581C172.101 99.7757 172.024 99.9626 171.886 100.1C171.749 100.238 171.562 100.315 171.367 100.314H169.657C169.462 100.315 169.275 100.238 169.138 100.1C169 99.9626 168.923 99.7757 168.924 99.581V97.871C168.923 97.6764 169 97.4895 169.138 97.3518C169.275 97.2142 169.462 97.1372 169.657 97.138ZM175.557 97.138H177.267C177.462 97.1372 177.649 97.2142 177.786 97.3518C177.924 97.4895 178.001 97.6764 178 97.871V99.581C178.001 99.7757 177.924 99.9626 177.786 100.1C177.649 100.238 177.462 100.315 177.267 100.314H175.557C175.362 100.315 175.175 100.238 175.038 100.1C174.9 99.9626 174.823 99.7757 174.824 99.581V97.871C174.823 97.6755 174.901 97.4878 175.04 97.35C175.178 97.2123 175.366 97.1359 175.562 97.138H175.557ZM181.5 97.138H183.21C183.405 97.1372 183.592 97.2142 183.729 97.3518C183.867 97.4895 183.944 97.6764 183.943 97.871V99.581C183.944 99.7757 183.867 99.9626 183.729 100.1C183.592 100.238 183.405 100.315 183.21 100.314H181.5C181.305 100.315 181.118 100.238 180.981 100.1C180.843 99.9626 180.766 99.7757 180.767 99.581V97.871C180.759 97.6743 180.834 97.4832 180.973 97.3439C181.112 97.2047 181.303 97.13 181.5 97.138ZM187.4 97.138H189.11C189.305 97.1372 189.492 97.2142 189.629 97.3518C189.767 97.4895 189.844 97.6764 189.843 97.871V99.581C189.844 99.7757 189.767 99.9626 189.629 100.1C189.492 100.238 189.305 100.315 189.11 100.314H187.4C187.205 100.315 187.018 100.238 186.881 100.1C186.743 99.9626 186.666 99.7757 186.667 99.581V97.871C186.666 97.675 186.744 97.4868 186.884 97.349C187.023 97.2111 187.212 97.1351 187.408 97.138H187.4ZM193.3 97.138H195.01C195.205 97.1372 195.392 97.2142 195.529 97.3518C195.667 97.4895 195.744 97.6764 195.743 97.871V99.581C195.744 99.7757 195.667 99.9626 195.529 100.1C195.392 100.238 195.205 100.315 195.01 100.314H193.3C193.105 100.315 192.918 100.238 192.781 100.1C192.643 99.9626 192.566 99.7757 192.567 99.581V97.871C192.566 97.6744 192.645 97.4858 192.785 97.3479C192.925 97.2099 193.114 97.1343 193.311 97.138H193.3ZM175.8 103.57H177.51C177.705 103.569 177.892 103.646 178.029 103.784C178.167 103.921 178.244 104.108 178.243 104.303V106.013C178.244 106.208 178.167 106.395 178.029 106.532C177.892 106.67 177.705 106.747 177.51 106.746H175.8C175.605 106.747 175.418 106.67 175.281 106.532C175.143 106.395 175.066 106.208 175.067 106.013V104.303C175.065 104.108 175.142 103.921 175.28 103.783C175.418 103.645 175.605 103.568 175.8 103.57ZM181.7 103.57H183.41C183.605 103.569 183.792 103.646 183.929 103.784C184.067 103.921 184.144 104.108 184.143 104.303V106.013C184.144 106.208 184.067 106.395 183.929 106.532C183.792 106.67 183.605 106.747 183.41 106.746H181.7C181.505 106.747 181.318 106.67 181.181 106.532C181.043 106.395 180.966 106.208 180.967 106.013V104.303C180.993 103.91 181.307 103.596 181.7 103.57ZM187.6 103.57H189.31C189.505 103.569 189.692 103.646 189.829 103.784C189.967 103.921 190.044 104.108 190.043 104.303V106.013C190.044 106.208 189.967 106.395 189.829 106.532C189.692 106.67 189.505 106.747 189.31 106.746H187.6C187.405 106.747 187.218 106.67 187.081 106.532C186.943 106.395 186.866 106.208 186.867 106.013V104.303C186.88 103.899 187.208 103.576 187.612 103.57H187.6ZM181.506 90.215H183.216C183.411 90.2142 183.598 90.2912 183.735 90.4288C183.873 90.5665 183.95 90.7534 183.949 90.948V92.658C183.95 92.8527 183.873 93.0396 183.735 93.1772C183.598 93.3149 183.411 93.3918 183.216 93.391H181.506C181.311 93.3918 181.124 93.3149 180.987 93.1772C180.849 93.0396 180.772 92.8527 180.773 92.658V90.948C180.765 90.7513 180.84 90.5602 180.979 90.4209C181.118 90.2817 181.309 90.207 181.506 90.215ZM187.406 90.215H189.116C189.311 90.2142 189.498 90.2912 189.635 90.4288C189.773 90.5665 189.85 90.7534 189.849 90.948V92.658C189.85 92.8527 189.773 93.0396 189.635 93.1772C189.498 93.3149 189.311 93.3918 189.116 93.391H187.406C187.211 93.3918 187.024 93.3149 186.887 93.1772C186.749 93.0396 186.672 92.8527 186.673 92.658V90.948C186.672 90.753 186.749 90.5658 186.887 90.4281C187.026 90.2904 187.213 90.2137 187.408 90.215H187.406Z" fill="#E1E4E5"/>
<path fill-rule="evenodd" clip-rule="evenodd" d="M52.053 106.624C52.0519 105.501 52.4977 104.423 53.2919 103.629C54.0862 102.835 55.1637 102.389 56.287 102.39H91.011C93.3237 102.426 95.1799 104.311 95.1799 106.624C95.1799 108.937 93.3237 110.821 91.011 110.857H56.287C55.1637 110.858 54.0862 110.412 53.2919 109.618C52.4977 108.824 52.0519 107.746 52.053 106.623V106.624ZM328.014 127.752C328.015 126.629 327.569 125.551 326.775 124.757C325.981 123.963 324.903 123.517 323.78 123.518H289.053C287.525 123.495 286.103 124.296 285.332 125.616C284.561 126.935 284.561 128.568 285.332 129.887C286.103 131.207 287.525 132.009 289.053 131.985H323.777C324.903 131.995 325.986 131.552 326.783 130.756C327.58 129.96 328.023 128.877 328.014 127.751V127.752ZM52.053 122.134C52.0519 121.011 52.4977 119.933 53.2919 119.139C54.0862 118.345 55.1637 117.899 56.287 117.9H75.053C77.3657 117.936 79.2219 119.821 79.2219 122.134C79.2219 124.447 77.3657 126.331 75.053 126.367H56.287C53.9542 126.354 52.0661 124.467 52.053 122.134ZM328.014 143.262C328.015 142.139 327.569 141.061 326.775 140.267C325.981 139.473 324.903 139.027 323.78 139.028H305.014C303.486 139.005 302.064 139.806 301.293 141.126C300.522 142.445 300.522 144.078 301.293 145.397C302.064 146.717 303.486 147.519 305.014 147.495H323.781C326.114 147.482 328.001 145.594 328.014 143.261V143.262ZM52.053 136.219C52.0519 135.096 52.4977 134.018 53.2919 133.224C54.0862 132.43 55.1637 131.984 56.287 131.985H75.053C77.3657 132.021 79.2219 133.906 79.2219 136.219C79.2219 138.532 77.3657 140.416 75.053 140.452H56.287C53.9542 140.439 52.0661 138.552 52.053 136.219ZM328.014 157.347C328.015 156.224 327.569 155.146 326.775 154.352C325.981 153.558 324.903 153.112 323.78 153.113H305.014C303.486 153.09 302.064 153.891 301.293 155.211C300.522 156.53 300.522 158.163 301.293 159.482C302.064 160.802 303.486 161.604 305.014 161.58H323.781C326.114 161.567 328.001 159.679 328.014 157.346V157.347Z" fill="white"/>
<path d="M52.053 106.624L50.053 106.626C50.054 107.73 50.9497 108.625 52.0539 108.624C53.1581 108.623 54.053 107.728 54.053 106.624H52.053ZM56.287 102.39L56.2851 104.39H56.287V102.39ZM91.011 102.39L91.0417 100.39C91.0315 100.39 91.0212 100.39 91.011 100.39V102.39ZM91.011 110.857V112.857C91.0212 112.857 91.0315 112.857 91.0417 112.857L91.011 110.857ZM56.287 110.857V108.857L56.2851 108.857L56.287 110.857ZM52.053 106.623H54.053C54.053 105.519 53.1581 104.624 52.0539 104.623C50.9497 104.622 50.054 105.517 50.053 106.621L52.053 106.623ZM328.014 127.752H326.014C326.014 128.856 326.909 129.751 328.013 129.752C329.117 129.753 330.013 128.858 330.014 127.754L328.014 127.752ZM323.78 123.518V125.518L323.782 125.518L323.78 123.518ZM289.053 123.518L289.022 125.518C289.033 125.518 289.043 125.518 289.053 125.518V123.518ZM289.053 131.985V129.985C289.043 129.985 289.033 129.985 289.022 129.985L289.053 131.985ZM323.777 131.985L323.795 129.985C323.789 129.985 323.783 129.985 323.777 129.985V131.985ZM328.014 127.751L330.014 127.735C330.005 126.633 329.107 125.747 328.006 125.751C326.904 125.756 326.014 126.65 326.014 127.751L328.014 127.751ZM56.287 117.9L56.2851 119.9H56.287V117.9ZM75.053 117.9L75.0837 115.9C75.0735 115.9 75.0632 115.9 75.053 115.9V117.9ZM75.053 126.367V128.367C75.0632 128.367 75.0735 128.367 75.0837 128.367L75.053 126.367ZM56.287 126.367L56.2762 128.367H56.287V126.367ZM328.014 143.262H326.014C326.014 144.366 326.909 145.261 328.013 145.262C329.117 145.263 330.013 144.368 330.014 143.264L328.014 143.262ZM323.78 139.028V141.028L323.782 141.028L323.78 139.028ZM305.014 139.028L304.983 141.028C304.993 141.028 305.004 141.028 305.014 141.028V139.028ZM305.014 147.495V145.495C305.004 145.495 304.993 145.495 304.983 145.495L305.014 147.495ZM323.781 147.495V149.495L323.792 149.495L323.781 147.495ZM328.014 143.261H330.014C330.014 142.159 329.122 141.264 328.019 141.261C326.917 141.258 326.02 142.148 326.014 143.25L328.014 143.261ZM56.287 131.985L56.2851 133.985H56.287V131.985ZM75.053 131.985L75.0837 129.985C75.0735 129.985 75.0632 129.985 75.053 129.985V131.985ZM75.053 140.452V142.452C75.0632 142.452 75.0735 142.452 75.0837 142.452L75.053 140.452ZM56.287 140.452L56.2762 142.452H56.287V140.452ZM328.014 157.347H326.014C326.014 158.451 326.909 159.346 328.013 159.347C329.117 159.348 330.013 158.453 330.014 157.349L328.014 157.347ZM323.78 153.113V155.113L323.782 155.113L323.78 153.113ZM305.014 153.113L304.983 155.113C304.993 155.113 305.004 155.113 305.014 155.113V153.113ZM305.014 161.58V159.58C305.004 159.58 304.993 159.58 304.983 159.58L305.014 161.58ZM323.781 161.58V163.58L323.792 163.58L323.781 161.58ZM328.014 157.346H330.014C330.014 156.244 329.122 155.349 328.019 155.346C326.917 155.343 326.02 156.233 326.014 157.335L328.014 157.346ZM54.053 106.622C54.0524 106.03 54.2874 105.462 54.7061 105.043L51.8777 102.215C50.7079 103.385 50.0514 104.972 50.053 106.626L54.053 106.622ZM54.7061 105.043C55.1249 104.624 55.6929 104.389 56.2851 104.39L56.2889 100.39C54.6345 100.388 53.0475 101.045 51.8777 102.215L54.7061 105.043ZM56.287 104.39H91.011V100.39H56.287V104.39ZM90.9802 104.39C92.2005 104.409 93.1799 105.403 93.1799 106.624H97.1799C97.1799 103.218 94.4469 100.443 91.0417 100.39L90.9802 104.39ZM93.1799 106.624C93.1799 107.844 92.2005 108.838 90.9802 108.857L91.0417 112.857C94.4469 112.804 97.1799 110.029 97.1799 106.624H93.1799ZM91.011 108.857H56.287V112.857H91.011V108.857ZM56.2851 108.857C55.6929 108.858 55.1249 108.623 54.7061 108.204L51.8777 111.032C53.0475 112.202 54.6345 112.859 56.2889 112.857L56.2851 108.857ZM54.7061 108.204C54.2874 107.785 54.0524 107.217 54.053 106.625L50.053 106.621C50.0514 108.275 50.7079 109.862 51.8777 111.032L54.7061 108.204ZM50.053 106.623V106.624H54.053V106.623H50.053ZM330.014 127.754C330.016 126.1 329.359 124.513 328.189 123.343L325.361 126.171C325.78 126.59 326.015 127.158 326.014 127.75L330.014 127.754ZM328.189 123.343C327.019 122.173 325.432 121.516 323.778 121.518L323.782 125.518C324.374 125.517 324.942 125.752 325.361 126.171L328.189 123.343ZM323.78 121.518H289.053V125.518H323.78V121.518ZM289.084 121.518C286.834 121.484 284.74 122.664 283.605 124.607L287.059 126.625C287.466 125.928 288.216 125.505 289.022 125.518L289.084 121.518ZM283.605 124.607C282.47 126.55 282.47 128.953 283.605 130.896L287.059 128.878C286.652 128.182 286.652 127.321 287.059 126.625L283.605 124.607ZM283.605 130.896C284.74 132.839 286.834 134.019 289.084 133.985L289.022 129.985C288.216 129.998 287.466 129.575 287.059 128.878L283.605 130.896ZM289.053 133.985H323.777V129.985H289.053V133.985ZM323.759 133.985C325.422 134 327.021 133.346 328.197 132.171L325.369 129.341C324.952 129.758 324.385 129.99 323.795 129.985L323.759 133.985ZM328.197 132.171C329.373 130.996 330.027 129.397 330.014 127.735L326.014 127.767C326.019 128.357 325.787 128.924 325.369 129.341L328.197 132.171ZM326.014 127.751V127.752H330.014V127.751H326.014ZM54.053 122.132C54.0524 121.54 54.2874 120.972 54.7061 120.553L51.8777 117.725C50.7079 118.895 50.0514 120.482 50.053 122.136L54.053 122.132ZM54.7061 120.553C55.1249 120.134 55.6929 119.899 56.2851 119.9L56.2889 115.9C54.6345 115.898 53.0475 116.555 51.8777 117.725L54.7061 120.553ZM56.287 119.9H75.053V115.9H56.287V119.9ZM75.0222 119.9C76.2425 119.919 77.2219 120.913 77.2219 122.134H81.2219C81.2219 118.728 78.4889 115.953 75.0837 115.9L75.0222 119.9ZM77.2219 122.134C77.2219 123.354 76.2425 124.348 75.0222 124.367L75.0837 128.367C78.4889 128.314 81.2219 125.539 81.2219 122.134H77.2219ZM75.053 124.367H56.287V128.367H75.053V124.367ZM56.2978 124.367C55.061 124.36 54.0599 123.36 54.053 122.123L50.053 122.145C50.0723 125.574 52.8475 128.349 56.2762 128.367L56.2978 124.367ZM330.014 143.264C330.016 141.61 329.359 140.023 328.189 138.853L325.361 141.681C325.78 142.1 326.015 142.668 326.014 143.26L330.014 143.264ZM328.189 138.853C327.019 137.683 325.432 137.026 323.778 137.028L323.782 141.028C324.374 141.027 324.942 141.262 325.361 141.681L328.189 138.853ZM323.78 137.028H305.014V141.028H323.78V137.028ZM305.045 137.028C302.795 136.994 300.701 138.174 299.566 140.117L303.02 142.135C303.427 141.438 304.177 141.015 304.983 141.028L305.045 137.028ZM299.566 140.117C298.431 142.06 298.431 144.463 299.566 146.406L303.02 144.388C302.613 143.692 302.613 142.831 303.02 142.135L299.566 140.117ZM299.566 146.406C300.701 148.349 302.795 149.529 305.045 149.495L304.983 145.495C304.177 145.508 303.427 145.085 303.02 144.388L299.566 146.406ZM305.014 149.495H323.781V145.495H305.014V149.495ZM323.792 149.495C327.221 149.476 329.995 146.701 330.014 143.272L326.014 143.25C326.007 144.487 325.007 145.488 323.77 145.495L323.792 149.495ZM326.014 143.261V143.262H330.014V143.261H326.014ZM54.053 136.217C54.0524 135.625 54.2874 135.057 54.7061 134.638L51.8777 131.81C50.7079 132.98 50.0514 134.567 50.053 136.221L54.053 136.217ZM54.7061 134.638C55.1249 134.219 55.6929 133.984 56.2851 133.985L56.2889 129.985C54.6345 129.983 53.0475 130.64 51.8777 131.81L54.7061 134.638ZM56.287 133.985H75.053V129.985H56.287V133.985ZM75.0222 133.985C76.2425 134.004 77.2219 134.998 77.2219 136.219H81.2219C81.2219 132.813 78.4889 130.038 75.0837 129.985L75.0222 133.985ZM77.2219 136.219C77.2219 137.439 76.2425 138.433 75.0222 138.452L75.0837 142.452C78.4889 142.399 81.2219 139.624 81.2219 136.219H77.2219ZM75.053 138.452H56.287V142.452H75.053V138.452ZM56.2978 138.452C55.061 138.445 54.0599 137.445 54.053 136.208L50.053 136.23C50.0723 139.659 52.8475 142.434 56.2762 142.452L56.2978 138.452ZM330.014 157.349C330.016 155.695 329.359 154.108 328.189 152.938L325.361 155.766C325.78 156.185 326.015 156.753 326.014 157.345L330.014 157.349ZM328.189 152.938C327.019 151.768 325.432 151.111 323.778 151.113L323.782 155.113C324.374 155.112 324.942 155.347 325.361 155.766L328.189 152.938ZM323.78 151.113H305.014V155.113H323.78V151.113ZM305.045 151.113C302.795 151.079 300.701 152.259 299.566 154.202L303.02 156.22C303.427 155.523 304.177 155.1 304.983 155.113L305.045 151.113ZM299.566 154.202C298.431 156.145 298.431 158.548 299.566 160.491L303.02 158.473C302.613 157.777 302.613 156.916 303.02 156.22L299.566 154.202ZM299.566 160.491C300.701 162.434 302.795 163.614 305.045 163.58L304.983 159.58C304.177 159.593 303.427 159.17 303.02 158.473L299.566 160.491ZM305.014 163.58H323.781V159.58H305.014V163.58ZM323.792 163.58C327.221 163.561 329.995 160.786 330.014 157.357L326.014 157.335C326.007 158.572 325.007 159.573 323.77 159.58L323.792 163.58ZM326.014 157.346V157.347H330.014V157.346H326.014Z" fill="#E1E4E5"/>
<path d="M313.726 95.998C307.213 97.545 300.333 92.009 300.333 92.009C300.333 92.009 303.997 83.989 310.51 82.443C317.023 80.897 323.903 86.432 323.903 86.432C323.903 86.432 320.239 94.452 313.726 95.998Z" fill="url(#paint1_linear_0_1927)"/>
<path d="M134.162 45.032C141.001 49.754 151.504 46.457 151.504 46.457C151.504 46.457 150.853 35.506 143.973 30.784C137.131 26.062 126.631 29.359 126.631 29.359C126.631 29.359 127.323 40.31 134.162 45.032Z" fill="url(#paint2_linear_0_1927)"/>
<path d="M127.16 212.75C133.755 217.391 143.932 214.297 143.932 214.297C143.932 214.297 143.403 203.672 136.808 199.031C130.213 194.39 120.036 197.484 120.036 197.484C120.036 197.484 120.565 208.069 127.16 212.75Z" fill="url(#paint3_linear_0_1927)"/>
<ellipse cx="292.72" cy="191.256" rx="5.536" ry="5.292" fill="#6DCE40"/>
<ellipse cx="187.164" cy="52.318" rx="5.292" ry="5.129" fill="#6DCE40"/>
<circle cx="42.0389" cy="126.163" r="2.646" fill="#6DCE40"/>
<circle cx="296.466" cy="59.606" r="5.048" fill="#6DCE40"/>
<ellipse cx="222.417" cy="208.231" rx="5.618" ry="5.414" fill="#E1E4E5"/>
<circle cx="76.4779" cy="163.412" r="2.809" fill="#E1E4E5"/>
<circle cx="170.596" cy="218.123" r="1.669" fill="#E1E4E5"/>
<circle cx="269.883" cy="47.1081" r="2.402" fill="#E1E4E5"/>
<circle cx="47.412" cy="180.835" r="2.361" fill="#E1E4E5"/>
<circle cx="110.551" cy="49.225" r="3.135" fill="#E1E4E5"/>
<ellipse cx="298.501" cy="117.004" rx="2.402" ry="1.913" fill="#E1E4E5"/>
<circle cx="217.98" cy="58.4661" r="4.885" fill="#E1E4E5"/>
<path fill-rule="evenodd" clip-rule="evenodd" d="M59.584 70.515H59.462C58.811 79.715 52.093 79.878 52.093 79.878C52.093 79.878 59.543 80.04 59.543 90.706C59.543 80.041 66.993 79.878 66.993 79.878C66.993 79.878 60.235 79.756 59.584 70.515ZM321.582 102.43H321.501C321.135 107.682 317.226 107.803 317.226 107.803C317.226 107.803 321.541 107.885 321.541 113.991C321.541 107.884 325.856 107.803 325.856 107.803C325.856 107.803 321.948 107.722 321.582 102.43Z" fill="#E1E4E5"/>
<path d="M118.856 126.815C115.681 102.715 132.33 74.015 167.787 78.372C197.87 82.072 204.387 77.314 217.329 70.515C225.878 66.037 239.271 58.14 250.099 80.773C264.306 110.409 231.007 156.857 201.249 171.105C172.835 184.705 124.595 170.576 118.856 126.814V126.815Z" fill="#6DCE40"/>
<path d="M157.528 126.001L174.218 142.854L210.611 106.054" stroke="white" stroke-width="10" stroke-linecap="round" stroke-linejoin="round"/>
<defs>
<linearGradient id="paint0_linear_0_1927" x1="-191.98" y1="170.934" x2="-208.832" y2="699.784" gradientUnits="userSpaceOnUse">
<stop stop-color="white"/>
<stop offset="1" stop-color="#EEEEEE"/>
</linearGradient>
<linearGradient id="paint1_linear_0_1927" x1="226.35" y1="262.02" x2="249.261" y2="346.555" gradientUnits="userSpaceOnUse">
<stop stop-color="white"/>
<stop offset="1" stop-color="#EEEEEE"/>
</linearGradient>
<linearGradient id="paint2_linear_0_1927" x1="100.129" y1="259.111" x2="65.2023" y2="359.91" gradientUnits="userSpaceOnUse">
<stop stop-color="white"/>
<stop offset="1" stop-color="#EEEEEE"/>
</linearGradient>
<linearGradient id="paint3_linear_0_1927" x1="95.787" y1="-118.902" x2="61.4218" y2="-22.9651" gradientUnits="userSpaceOnUse">
<stop stop-color="white"/>
<stop offset="1" stop-color="#EEEEEE"/>
</linearGradient>
</defs>
</svg>
