<svg width="20" height="20" viewBox="0 0 20 20" fill="none" xmlns="http://www.w3.org/2000/svg">
<path fill-rule="evenodd" clip-rule="evenodd" d="M10 0C4.47715 0 0 4.47715 0 10C0 15.5228 4.47715 20 10 20C15.5228 20 20 15.5228 20 10C20 4.47715 15.5228 0 10 0ZM8.91971 10.7481C8.93557 11.3315 9.41304 11.7961 9.99662 11.7961C10.5798 11.7961 11.057 11.3321 11.0735 10.7492L11.2204 5.54176C11.2399 4.85387 10.6875 4.28571 9.99934 4.28571C9.31168 4.28571 8.75953 4.85308 8.77821 5.54048L8.91971 10.7481ZM8.57143 14.4186C8.57143 15.2177 9.12088 15.7143 10 15.7143C10.887 15.7143 11.4286 15.2177 11.4286 14.4186C11.4286 13.6117 10.887 13.1151 10 13.1151C9.12088 13.1151 8.57143 13.6117 8.57143 14.4186Z" fill="#E33629"/>
</svg>
