<svg width="336" height="225" viewBox="0 0 336 225" fill="none" xmlns="http://www.w3.org/2000/svg">
<path fill-rule="evenodd" clip-rule="evenodd" d="M166.959 24.505H167.146C190.406 24.5016 212.715 33.7402 229.163 50.1879C245.611 66.6356 254.849 88.9445 254.846 112.205V112.392C254.849 135.653 245.611 157.961 229.163 174.409C212.715 190.857 190.406 200.095 167.146 200.092H166.959C143.698 200.095 121.389 190.857 104.942 174.409C88.494 157.961 79.2553 135.653 79.2588 112.392V112.205C79.2649 63.7722 118.526 24.5111 166.959 24.505Z" stroke="#E1E4E5" stroke-width="5" stroke-linecap="round" stroke-linejoin="bevel" stroke-dasharray="11.32"/>
<ellipse cx="77.8399" cy="112.314" rx="12.917" ry="12.731" fill="white" stroke="#E1E4E5" stroke-width="5"/>
<ellipse cx="167.067" cy="23.124" rx="12.731" ry="12.917" fill="white" stroke="#E1E4E5" stroke-width="5"/>
<ellipse cx="256.256" cy="112.314" rx="12.917" ry="12.731" fill="white" stroke="#E1E4E5" stroke-width="5"/>
<ellipse cx="167.067" cy="201.502" rx="12.731" ry="12.917" fill="white" stroke="#E1E4E5" stroke-width="5"/>
<path fill-rule="evenodd" clip-rule="evenodd" d="M222.171 125.604V80.879C222.156 73.1779 217.318 66.3115 210.071 63.706L182.146 53.701C172.512 50.2663 161.988 50.2663 152.354 53.701L124.399 63.743C117.156 66.332 112.315 73.187 112.299 80.879V125.567C112.299 148.788 144.928 165.962 159.899 172.682C164.553 174.773 169.88 174.773 174.534 172.682C189.579 165.999 222.171 148.788 222.171 125.604Z" fill="#6DCE40"/>
<path fill-rule="evenodd" clip-rule="evenodd" d="M222.171 125.604V80.879C222.156 73.1779 217.318 66.3115 210.071 63.706L182.146 53.701C172.512 50.2663 161.988 50.2663 152.354 53.701L124.399 63.743C117.156 66.332 112.315 73.187 112.299 80.879V125.567C112.299 148.788 144.928 165.962 159.899 172.682C164.553 174.773 169.88 174.773 174.534 172.682C189.579 165.999 222.171 148.788 222.171 125.604Z" fill="#6DCE40"/>
<path d="M144.368 97.081H190.101V136.916H144.368V97.081Z" fill="white"/>
<path fill-rule="evenodd" clip-rule="evenodd" d="M167.44 100.106C161.728 100.106 156.651 100.33 152.507 100.629C148.468 100.997 145.35 104.339 145.264 108.394C145.077 111.418 144.928 114.594 144.928 117.578C144.928 120.562 145.077 123.738 145.264 126.762C145.564 131.018 148.587 134.262 152.507 134.527C162.462 135.199 172.452 135.199 182.407 134.527C186.446 134.159 189.564 130.817 189.65 126.762C189.837 123.738 189.986 120.562 189.986 117.578C189.986 114.594 189.837 111.418 189.65 108.394C189.35 104.138 186.327 100.894 182.407 100.629C177.407 100.293 172.402 100.106 167.436 100.106H167.44ZM152.059 93.647C144.928 94.132 139.291 100.147 138.806 107.908C138.582 111.044 138.433 114.408 138.433 117.577C138.433 120.788 138.582 124.148 138.806 127.246C139.329 134.974 144.929 140.985 152.059 141.507C162.288 142.216 172.555 142.216 182.784 141.507C189.915 141.022 195.552 135.007 196.037 127.246C196.261 124.11 196.41 120.746 196.41 117.577C196.41 114.366 196.261 111.006 196.037 107.908C195.514 100.18 189.914 94.169 182.784 93.647C172.553 92.975 162.29 92.975 152.059 93.647Z" fill="white"/>
<path fill-rule="evenodd" clip-rule="evenodd" d="M151.237 90.735C151.237 81.8277 158.458 74.607 167.365 74.607C176.272 74.607 183.493 81.8277 183.493 90.735V103.652C183.518 105.432 182.099 106.897 180.319 106.928C178.539 106.959 177.07 105.544 177.034 103.764V90.735C177.034 85.3947 172.705 81.0655 167.364 81.0655C162.024 81.0655 157.695 85.3947 157.695 90.735V103.652C157.724 104.809 157.128 105.892 156.135 106.487C155.142 107.081 153.906 107.096 152.9 106.524C151.893 105.953 151.272 104.884 151.274 103.727V103.652L151.237 90.735H151.237Z" fill="white"/>
<path fill-rule="evenodd" clip-rule="evenodd" d="M170.614 121.61C173.327 120.038 174.52 116.746 173.446 113.801C172.371 110.855 169.338 109.106 166.25 109.65C163.163 110.194 160.91 112.875 160.907 116.01C160.912 118.313 162.133 120.443 164.118 121.61V125.717C164.118 126.569 164.456 127.386 165.058 127.988C165.661 128.59 166.478 128.928 167.329 128.928C168.181 128.928 168.998 128.59 169.6 127.988C170.202 127.386 170.54 126.569 170.54 125.717L170.615 121.61H170.614Z" fill="#6DCE40"/>
<circle cx="267.046" cy="78.191" r="7.355" fill="#6DCE40"/>
<circle cx="71.755" cy="71.956" r="6.048" fill="#6DCE40"/>
<circle cx="93.4461" cy="184.927" r="6.907" fill="#6DCE40"/>
<circle cx="236.395" cy="142.255" r="3.211" fill="#6DCE40"/>
<circle cx="199.771" cy="178.02" r="4.144" fill="#E1E4E5"/>
<circle cx="67.8719" cy="145.39" r="5.973" fill="#E1E4E5"/>
<circle cx="217.616" cy="204.564" r="4.555" fill="#E1E4E5"/>
<ellipse cx="233.334" cy="33.316" rx="2.427" ry="2.651" fill="#E1E4E5"/>
<circle cx="115.584" cy="160.1" r="4.555" fill="#E1E4E5"/>
<circle cx="102.069" cy="31.412" r="1.904" fill="#E1E4E5"/>
<ellipse cx="257.114" cy="169.247" rx="4.629" ry="3.696" fill="#E1E4E5"/>
<circle cx="200.442" cy="47.204" r="3.285" fill="#E1E4E5"/>
</svg>
