<svg width="314" height="210" viewBox="0 0 314 210" fill="none" xmlns="http://www.w3.org/2000/svg">
<path fill-rule="evenodd" clip-rule="evenodd" d="M120.572 43.0959H104.542C95.6894 43.0971 88.5131 50.2733 88.512 59.1259V171.334C88.5131 180.187 95.6894 187.363 104.542 187.364H200.721C209.574 187.363 216.75 180.187 216.751 171.334V163.319" fill="white"/>
<path d="M120.572 43.0959H104.542C95.6894 43.0971 88.5131 50.2733 88.512 59.1259V171.334C88.5131 180.187 95.6894 187.363 104.542 187.364H200.721C209.574 187.363 216.75 180.187 216.751 171.334V163.319" stroke="#E1E4E5" stroke-width="4"/>
<path fill-rule="evenodd" clip-rule="evenodd" d="M172.672 55.118H132.594C125.954 55.118 120.572 49.7353 120.572 43.0955C120.572 36.4557 125.954 31.073 132.594 31.073H172.672C179.312 31.073 184.695 36.4557 184.695 43.0955C184.695 49.7353 179.312 55.118 172.672 55.118Z" fill="white" stroke="#E1E4E5" stroke-width="4"/>
<path d="M120.572 83.17H168.661" stroke="#E1E4E5" stroke-width="6.462"/>
<path d="M120.572 115.265H152.632" stroke="#E1E4E5" stroke-width="6.462"/>
<path d="M120.572 147.045H152.632" stroke="#E1E4E5" stroke-width="6.462"/>
<path fill-rule="evenodd" clip-rule="evenodd" d="M184.691 43.0959H200.721C209.574 43.0971 216.75 50.2733 216.751 59.1259" fill="white"/>
<path d="M184.691 43.0959H200.721C209.574 43.0971 216.75 50.2733 216.751 59.1259" stroke="#E1E4E5" stroke-width="4"/>
<path fill-rule="evenodd" clip-rule="evenodd" d="M171.798 98.329V154.015C171.816 160.166 176.798 165.148 182.949 165.166H260.898C267.049 165.148 272.031 160.166 272.049 154.015V98.329" fill="#E1E4E5"/>
<path d="M171.798 98.329V154.015C171.816 160.166 176.798 165.148 182.949 165.166H260.898C267.049 165.148 272.031 160.166 272.049 154.015V98.329" stroke="#E1E4E5" stroke-width="4.532"/>
<path fill-rule="evenodd" clip-rule="evenodd" d="M175.073 161.89L209.014 127.949L175.073 161.89Z" fill="white"/>
<path d="M175.073 161.89L209.014 127.949" stroke="white" stroke-width="4.532"/>
<path fill-rule="evenodd" clip-rule="evenodd" d="M235.046 128.193L268.746 161.893L235.046 128.193Z" fill="white"/>
<path d="M235.046 128.193L268.746 161.893" stroke="white" stroke-width="4.532"/>
<path fill-rule="evenodd" clip-rule="evenodd" d="M171.798 97.2141C171.798 100.559 173.471 103.347 176.258 105.577L209.677 128.402C217.275 133.42 227.134 133.42 234.732 128.402L268.151 106.135C270.381 103.347 272.051 100.559 272.051 97.2141C272.074 91.7027 267.631 87.2128 262.12 87.1781H181.799C176.287 87.1548 171.797 91.5983 171.763 97.1101C171.798 97.1781 171.798 97.1781 171.798 97.2141Z" fill="white" stroke="#E1E4E5" stroke-width="4.532"/>
<path fill-rule="evenodd" clip-rule="evenodd" d="M221.977 109.445C213.945 109.446 206.242 106.256 200.563 100.576C194.884 94.8968 191.694 87.1937 191.695 79.162C191.695 62.78 205.634 48.88 222.012 48.88C238.737 48.8897 252.287 62.4554 252.277 79.18C252.267 95.9046 238.702 109.455 221.977 109.445Z" fill="#6DCE40"/>
<path d="M232.85 74.075L219.329 87.665L211.21 79.511" stroke="white" stroke-width="7" stroke-linecap="round" stroke-linejoin="round"/>
<path d="M62.865 85.366C69.5062 75.7833 82.6581 73.3981 92.2414 80.0385C101.825 86.6789 104.211 99.8305 97.5715 109.414C90.9319 118.998 77.7805 121.386 68.196 114.747C58.6192 108.1 56.2339 94.9537 62.865 85.366Z" fill="#7853FF"/>
<path d="M67.709 109.341C67.8678 109.643 67.8615 110.006 67.6922 110.302C67.5229 110.599 67.214 110.788 66.873 110.805L57.573 111.084C57.2083 111.102 56.864 110.915 56.6806 110.599C56.4973 110.283 56.5055 109.892 56.702 109.584L61.79 101.569C61.9748 101.277 62.3015 101.106 62.6467 101.12C62.992 101.135 63.3033 101.332 63.463 101.639L67.714 109.339L67.709 109.341Z" fill="#7853FF"/>
<path fill-rule="evenodd" clip-rule="evenodd" d="M86.735 98.2589C86.7559 99.4079 87.4668 100.431 88.5363 100.852C89.6059 101.272 90.8233 101.007 91.6209 100.179C92.4185 99.3519 92.6391 98.1256 92.1799 97.0721C91.7206 96.0187 90.672 95.3457 89.523 95.3669C87.9547 95.3959 86.7066 96.6906 86.735 98.2589ZM76.908 98.6769C77.0272 99.8119 77.8184 100.763 78.9126 101.087C80.0068 101.411 81.1885 101.044 81.9064 100.157C82.6243 99.27 82.7371 98.0378 82.1922 97.0352C81.6472 96.0325 80.5519 95.457 79.417 95.5769C78.6727 95.654 77.9897 96.0243 77.5189 96.606C77.0481 97.1877 76.8283 97.9329 76.908 98.6769ZM69.6436 101.261C68.5494 100.937 67.7582 99.9859 67.639 98.8509C67.4899 97.3063 68.6062 95.927 70.148 95.7509C71.2829 95.631 72.3782 96.2065 72.9232 97.2092C73.4681 98.2118 73.3553 99.444 72.6374 100.331C71.9195 101.218 70.7378 101.585 69.6436 101.261Z" fill="white"/>
<path d="M89.698 132.061C96.3392 122.478 109.491 120.093 119.074 126.733C128.658 133.374 131.044 146.525 124.405 156.109C117.765 165.693 104.614 168.081 95.029 161.442C85.4522 154.795 83.0669 141.649 89.698 132.061Z" fill="#FEB220"/>
<path d="M94.541 156.036C94.6999 156.338 94.6935 156.701 94.5242 156.997C94.3549 157.294 94.046 157.483 93.705 157.5L84.405 157.779C84.0403 157.797 83.696 157.61 83.5127 157.294C83.3293 156.979 83.3375 156.587 83.534 156.279L88.622 148.264C88.8068 147.972 89.1335 147.801 89.4788 147.815C89.8241 147.83 90.1353 148.028 90.295 148.334L94.546 156.034L94.541 156.036Z" fill="#FEB220"/>
<path fill-rule="evenodd" clip-rule="evenodd" d="M113.567 144.955C113.588 146.104 114.299 147.127 115.368 147.548C116.438 147.968 117.655 147.703 118.453 146.875C119.25 146.048 119.471 144.822 119.012 143.768C118.553 142.715 117.504 142.042 116.355 142.063C114.787 142.092 113.539 143.387 113.567 144.955ZM103.74 145.373C103.859 146.508 104.65 147.459 105.745 147.783C106.839 148.107 108.02 147.74 108.738 146.853C109.456 145.966 109.569 144.734 109.024 143.731C108.479 142.729 107.384 142.153 106.249 142.273C105.505 142.35 104.822 142.72 104.351 143.302C103.88 143.884 103.66 144.629 103.74 145.373ZM96.4756 147.957C95.3814 147.633 94.5902 146.682 94.471 145.547C94.3913 144.803 94.6111 144.058 95.0818 143.476C95.5526 142.894 96.2356 142.524 96.98 142.447C98.1148 142.327 99.2102 142.903 99.7551 143.905C100.3 144.908 100.187 146.14 99.4694 147.027C98.7514 147.914 97.5698 148.281 96.4756 147.957Z" fill="white"/>
<path fill-rule="evenodd" clip-rule="evenodd" d="M58.508 173.077H59.867C60.1898 173.087 60.4491 173.346 60.459 173.669V175.028C60.4491 175.351 60.1898 175.61 59.867 175.62H58.508C58.1852 175.61 57.9259 175.351 57.916 175.028V173.669C57.9147 173.512 57.9766 173.36 58.0879 173.249C58.1992 173.138 58.3506 173.076 58.508 173.077ZM63.208 173.077H64.567C64.8898 173.087 65.1491 173.346 65.159 173.669V175.028C65.1491 175.351 64.8898 175.61 64.567 175.62H63.216C62.8932 175.61 62.6339 175.351 62.624 175.028V173.669C62.6339 173.346 62.8932 173.087 63.216 173.077H63.208ZM67.947 173.077H69.316C69.6388 173.087 69.8981 173.346 69.908 173.669V175.028C69.8981 175.351 69.6388 175.61 69.316 175.62H67.957C67.6342 175.61 67.3749 175.351 67.365 175.028V173.669C67.3636 173.512 67.4256 173.36 67.5369 173.249C67.6482 173.138 67.7996 173.076 67.957 173.077H67.947ZM72.647 173.077H74.016C74.3388 173.087 74.5981 173.346 74.608 173.669V175.028C74.5981 175.351 74.3388 175.61 74.016 175.62H72.656C72.3332 175.61 72.0739 175.351 72.064 175.028V173.669C72.0739 173.346 72.3332 173.087 72.656 173.077H72.647ZM77.386 173.077H78.745C79.0678 173.087 79.3271 173.346 79.337 173.669V175.028C79.3271 175.351 79.0678 175.61 78.745 175.62H77.396C77.0732 175.61 76.8139 175.351 76.804 175.028V173.669C76.8027 173.512 76.8646 173.36 76.9759 173.249C77.0872 173.138 77.2386 173.076 77.396 173.077H77.386ZM63.387 178.236H64.746C65.0688 178.246 65.3281 178.505 65.338 178.828V180.187C65.3281 180.51 65.0688 180.769 64.746 180.779H63.387C63.0642 180.769 62.8049 180.51 62.795 180.187V178.828C62.7937 178.671 62.8556 178.519 62.9669 178.408C63.0782 178.297 63.2296 178.235 63.387 178.236ZM68.126 178.236H69.485C69.8078 178.246 70.0671 178.505 70.077 178.828V180.187C70.0671 180.51 69.8078 180.769 69.485 180.779H68.126C67.8032 180.769 67.5439 180.51 67.534 180.187V178.828C67.5208 178.667 67.579 178.509 67.693 178.395C67.807 178.281 67.9653 178.223 68.126 178.236ZM72.826 178.236H74.185C74.5078 178.246 74.7671 178.505 74.777 178.828V180.187C74.7671 180.51 74.5078 180.769 74.185 180.779H72.826C72.5032 180.769 72.2439 180.51 72.234 180.187V178.828C72.2326 178.671 72.2946 178.519 72.4059 178.408C72.5172 178.297 72.6686 178.235 72.826 178.236ZM67.947 167.536H69.316C69.6388 167.546 69.8981 167.805 69.908 168.128V169.487C69.8981 169.81 69.6388 170.069 69.316 170.079H67.957C67.6342 170.069 67.3749 169.81 67.365 169.487V168.128C67.3636 167.971 67.4256 167.819 67.5369 167.708C67.6482 167.597 67.7996 167.535 67.957 167.536H67.947ZM72.647 167.536H74.016C74.3388 167.546 74.5981 167.805 74.608 168.128V169.487C74.5981 169.81 74.3388 170.069 74.016 170.079H72.656C72.3332 170.069 72.0739 169.81 72.064 169.487V168.128C72.0739 167.805 72.3332 167.546 72.656 167.536H72.647Z" fill="#E1E4E5"/>
<path d="M257.525 181.091C253.831 181.962 249.925 178.826 249.925 178.826C249.925 178.826 252.016 174.261 255.71 173.39C259.404 172.519 263.31 175.655 263.31 175.655C263.31 175.655 261.219 180.22 257.525 181.091Z" fill="url(#paint0_linear_0_1599)"/>
<path d="M53.67 129.692C51.47 130.215 49.17 128.368 49.17 128.368C49.17 128.368 50.39 125.685 52.585 125.162C54.78 124.639 57.085 126.486 57.085 126.486C57.085 126.486 55.861 129.204 53.67 129.692Z" fill="url(#paint1_linear_0_1599)"/>
<path d="M80.289 49.577C82.45 46.406 80.881 41.597 80.881 41.597C80.881 41.597 75.828 41.945 73.668 45.117C71.508 48.289 73.076 53.097 73.076 53.097C73.076 53.097 78.128 52.748 80.289 49.577Z" fill="url(#paint2_linear_0_1599)"/>
<ellipse cx="229.818" cy="176.073" rx="3.136" ry="2.997" fill="#6DCE40"/>
<circle cx="162.424" cy="173.32" r="3.171" fill="#6DCE40"/>
<circle cx="61.332" cy="68.5" r="3.938" fill="#6DCE40"/>
<ellipse cx="216.333" cy="160.357" rx="2.091" ry="2.021" fill="#E1E4E5"/>
<circle cx="144.93" cy="97.318" r="3.241" fill="#E1E4E5"/>
<ellipse cx="189.813" cy="187.538" rx="1.533" ry="1.638" fill="#E1E4E5"/>
<circle cx="162.842" cy="24.9401" r="3.589" fill="#E1E4E5"/>
<circle cx="70.67" cy="144.919" r="1.986" fill="#E1E4E5"/>
<circle cx="201.627" cy="33.547" r="2.474" fill="#E1E4E5"/>
<defs>
<linearGradient id="paint0_linear_0_1599" x1="207.924" y1="-232.135" x2="220.933" y2="-184.146" gradientUnits="userSpaceOnUse">
<stop stop-color="white"/>
<stop offset="1" stop-color="#EEEEEE"/>
</linearGradient>
<linearGradient id="paint1_linear_0_1599" x1="24.1917" y1="-1.52891" x2="31.7906" y2="26.9231" gradientUnits="userSpaceOnUse">
<stop stop-color="white"/>
<stop offset="1" stop-color="#EEEEEE"/>
</linearGradient>
<linearGradient id="paint2_linear_0_1599" x1="104.116" y1="145.319" x2="57.5488" y2="129.222" gradientUnits="userSpaceOnUse">
<stop stop-color="white"/>
<stop offset="1" stop-color="#EEEEEE"/>
</linearGradient>
</defs>
</svg>
