<svg width="294" height="197" viewBox="0 0 294 197" fill="none" xmlns="http://www.w3.org/2000/svg">
<path d="M219.063 51.722C219.072 41.7982 212.851 32.9367 203.514 29.574L166.633 16.311L166.862 15.69L166.633 16.311C154.067 11.8031 140.325 11.8031 127.76 16.311L90.8469 29.611C81.5289 32.9771 75.3137 41.8147 75.2969 51.722V110.98C75.2969 126.072 85.8479 139.269 99.0779 149.919C112.243 160.536 127.923 168.408 137.788 172.851C143.767 175.562 150.625 175.562 156.604 172.851C166.469 168.408 182.149 160.536 195.314 149.919C208.514 139.302 219.095 126.072 219.095 111.013V51.722H219.063Z" fill="white" stroke="#E1E4E5" stroke-width="4"/>
<path fill-rule="evenodd" clip-rule="evenodd" d="M207.106 107.97V59.07C207.106 50.6521 201.826 43.1385 193.906 40.287L163.464 29.312C152.972 25.5226 141.485 25.5226 130.993 29.312L100.485 40.288C92.565 43.1394 87.2848 50.6525 87.2849 59.07V107.97C87.2849 133.385 122.859 152.201 139.225 159.551C144.304 161.838 150.12 161.838 155.199 159.551C171.532 152.237 207.106 133.388 207.106 107.97Z" fill="#6DCE40"/>
<path d="M174.767 78.573L143.538 109.606L124.787 90.986" stroke="white" stroke-width="10" stroke-linecap="round" stroke-linejoin="round"/>
<circle cx="58.278" cy="76.058" r="24.925" fill="#7853FF"/>
<path fill-rule="evenodd" clip-rule="evenodd" d="M66.8681 84.78V86.021C66.8681 86.3501 66.7373 86.6658 66.5046 86.8985C66.2719 87.1312 65.9562 87.262 65.6271 87.262H50.8941C50.5649 87.262 50.2493 87.1312 50.0166 86.8985C49.7838 86.6658 49.6531 86.3501 49.6531 86.021V84.78C49.6531 81.056 53.9001 78.671 58.2441 78.671C62.6211 78.638 66.8681 81.056 66.8681 84.78ZM61.3151 67.892C62.5464 69.1212 62.9156 70.9713 62.2505 72.579C61.5853 74.1867 60.0169 75.2351 58.2771 75.2351C56.5372 75.2351 54.9688 74.1867 54.3037 72.579C53.6386 70.9713 54.0078 69.1212 55.2391 67.892C56.9218 66.226 59.6323 66.226 61.3151 67.892Z" fill="white"/>
<path d="M60.8581 39.308C64.8761 41.301 70.2331 38.753 70.2331 38.753C70.2331 38.753 69.0571 32.938 65.0061 30.946C60.9881 28.953 55.6311 31.501 55.6311 31.501C55.6311 31.501 56.8401 37.315 60.8581 39.308Z" fill="url(#paint0_linear_0_555)"/>
<path d="M191.851 178.398C186.851 181.371 179.732 178.627 179.732 178.627C179.732 178.627 180.679 171.016 185.645 168.043C190.645 165.07 197.764 167.814 197.764 167.814C197.764 167.814 196.817 175.393 191.851 178.398Z" fill="url(#paint1_linear_0_555)"/>
<circle cx="35.411" cy="42.215" r="2.744" fill="#6DCE40"/>
<circle cx="229.19" cy="22.485" r="5.129" fill="#6DCE40"/>
<circle cx="240.165" cy="71.125" r="2.744" fill="#6DCE40"/>
<circle cx="87.22" cy="164.977" r="3.855" fill="#E1E4E5"/>
<circle cx="37.534" cy="116.989" r="4.867" fill="#E1E4E5"/>
<circle cx="232.593" cy="90.0395" r="3.85546" transform="rotate(-74.9911 232.593 90.0395)" fill="#E1E4E5"/>
<ellipse cx="55.9259" cy="125.222" rx="3.953" ry="3.169" fill="#E1E4E5"/>
<circle cx="53.7369" cy="150.669" r="6.305" fill="#E1E4E5"/>
<path fill-rule="evenodd" clip-rule="evenodd" d="M77.9759 12.26H78.0409C78.3349 16.96 81.7329 17.029 81.7329 17.029C81.7329 17.029 78.0089 17.127 78.0089 22.55C78.0089 17.094 74.2849 17.029 74.2849 17.029C74.2849 17.029 77.6489 16.96 77.9759 12.26ZM240.035 40.288H240.1H240.101C240.427 45.023 243.89 45.088 243.89 45.088C243.89 45.088 240.035 45.154 240.035 50.609C240.035 45.153 236.18 45.088 236.18 45.088C236.18 45.088 239.708 44.988 240.035 40.288Z" fill="#E1E4E5"/>
<path d="M218.279 147.141H256.107V175.757H218.279V147.141Z" fill="#FEB220"/>
<path fill-rule="evenodd" clip-rule="evenodd" d="M237.291 147.925C232.554 147.925 228.34 148.088 224.878 148.317C221.655 148.483 219.069 151.041 218.867 154.262C218.704 156.581 218.573 158.999 218.573 161.285C218.573 163.571 218.704 165.985 218.867 168.308C219.069 171.529 221.655 174.087 224.878 174.253C233.134 174.776 241.416 174.776 249.672 174.253C252.895 174.087 255.481 171.529 255.683 168.308C255.846 165.989 255.977 163.571 255.977 161.285C255.977 158.999 255.846 156.585 255.683 154.262C255.481 151.041 252.895 148.483 249.672 148.317C245.556 148.056 241.407 147.925 237.291 147.925ZM224.551 142.992C218.658 143.337 213.941 148.01 213.542 153.9C213.379 156.285 213.248 158.865 213.248 161.315C213.248 163.765 213.379 166.346 213.542 168.73C213.95 174.616 218.659 179.286 224.548 179.644C233.033 180.167 241.543 180.167 250.028 179.644C255.922 179.299 260.64 174.624 261.037 168.733C261.2 166.348 261.331 163.768 261.331 161.318C261.331 158.868 261.2 156.287 261.037 153.903C260.628 148.018 255.917 143.348 250.028 142.992C241.543 142.469 233.033 142.469 224.548 142.992H224.551Z" fill="#FEB220"/>
<path fill-rule="evenodd" clip-rule="evenodd" d="M239.969 163.249C242.044 162.025 243.04 159.562 242.399 157.24C241.757 154.918 239.638 153.315 237.229 153.33C234.82 153.345 232.721 154.974 232.108 157.303C231.496 159.633 232.522 162.084 234.612 163.282V166.682C234.619 168.159 235.814 169.354 237.291 169.361C238.768 169.354 239.963 168.159 239.97 166.682V163.249H239.969Z" fill="white"/>
<path fill-rule="evenodd" clip-rule="evenodd" d="M223.93 134.564C223.993 127.23 229.956 121.319 237.29 121.319C244.624 121.319 250.587 127.23 250.651 134.564V145.246C250.623 146.705 249.432 147.873 247.972 147.873C246.513 147.873 245.322 146.705 245.294 145.246V134.564C245.294 130.144 241.711 126.56 237.29 126.56C232.87 126.56 229.287 130.144 229.287 134.564V145.246C229.259 146.705 228.068 147.873 226.608 147.873C225.149 147.873 223.958 146.705 223.93 145.246L223.93 134.564Z" fill="#FEB220"/>
<defs>
<linearGradient id="paint0_linear_0_555" x1="33.9097" y1="277.484" x2="17.522" y2="339.227" gradientUnits="userSpaceOnUse">
<stop stop-color="white"/>
<stop offset="1" stop-color="#EEEEEE"/>
</linearGradient>
<linearGradient id="paint1_linear_0_555" x1="124.362" y1="-122.582" x2="147.163" y2="-47.0412" gradientUnits="userSpaceOnUse">
<stop stop-color="white"/>
<stop offset="1" stop-color="#EEEEEE"/>
</linearGradient>
</defs>
</svg>
