<svg width="37" height="33" viewBox="0 0 37 33" fill="none" xmlns="http://www.w3.org/2000/svg">
<path d="M36.5 8.625V28.875C36.4994 30.7387 34.9887 32.2494 33.125 32.25H3.875C2.01127 32.2494 0.500552 30.7387 0.5 28.875V8.625C0.500552 6.76127 2.01127 5.25055 3.875 5.25H10.063L10.928 2.937C11.4212 1.62137 12.679 0.749807 14.084 0.75H22.908C24.3134 0.74939 25.5716 1.62103 26.065 2.937L26.937 5.25H33.125C34.9887 5.25055 36.4994 6.76127 36.5 8.625Z" fill="#15294B"/>
<path d="M26.938 18.75C26.938 14.0898 23.1602 10.312 18.5 10.312C13.8398 10.312 10.062 14.0898 10.062 18.75C10.062 23.4102 13.8398 27.188 18.5 27.188C23.1602 27.188 26.938 23.4102 26.938 18.75Z" fill="#15294B"/>
<path d="M24.6879 18.75C24.6884 21.2529 23.181 23.5096 20.8687 24.4677C18.5564 25.4258 15.8947 24.8966 14.1247 23.1269C12.3548 21.3572 11.8252 18.6956 12.7829 16.3832C13.7406 14.0708 15.997 12.563 18.4999 12.563C21.9171 12.563 24.6874 15.3328 24.6879 18.75Z" fill="white"/>
</svg>
