<svg width="120" height="120" viewBox="0 0 120 120" fill="none" xmlns="http://www.w3.org/2000/svg">
<rect x="0.5" y="0.5" width="119" height="119" stroke="#5D5D5D" stroke-dasharray="120 120"/>
<path d="M45.508 39.2892V21.0728L24.5574 42.0248H42.7724C44.7413 42.0248 45.508 41.2581 45.508 39.2892Z" fill="#7E7E7E"/>
<path d="M95.8356 48.1615L91.0006 43.3265C90.1584 42.4842 88.7947 42.4856 87.9525 43.3265L84.8181 46.4609L92.7026 54.3444L95.8358 51.2084C96.6766 50.3662 96.678 49.0025 95.8356 48.1615Z" fill="#7E7E7E"/>
<path d="M50.0938 91.4509C49.4254 91.6206 48.7179 91.4267 48.2301 90.9389C47.7423 90.4511 47.547 89.7422 47.7168 89.0737L52.2513 71.2239L77.0115 46.4609L78.9965 44.4773L83.3855 40.0869L84.0498 39.4239C84.2816 39.192 84.5443 39.0061 84.7991 38.8081V23.5442C84.7991 21.5902 83.2077 20 81.2523 20H49.5588V41.7269C49.5588 44.1242 47.6088 46.0756 45.2129 46.0756H23.5332V96.4531C23.5332 98.4084 25.1246 100 27.0801 100H81.2524C83.2077 100 84.7993 98.4086 84.7993 96.4531V70.0516L67.9424 86.9111L50.0938 91.4509Z" fill="#7E7E7E"/>
<path d="M57.2278 74.054L54.542 84.6243L65.1111 81.9359L91.2675 55.7768L83.3856 47.8936L57.2278 74.054ZM62.1707 75.8448L60.3798 74.0539L83.17 51.2636L84.9623 53.0559L62.1707 75.8448Z" fill="#7E7E7E"/>
</svg>
