<svg width="157" height="130" viewBox="0 0 157 130" fill="none" xmlns="http://www.w3.org/2000/svg">
<g clip-path="url(#clip0_1531_148953)">
<path d="M78.327 129.341C110.276 129.341 136.176 124.49 136.176 118.506C136.176 112.523 110.276 107.672 78.327 107.672C46.3782 107.672 20.4785 112.523 20.4785 118.506C20.4785 124.49 46.3782 129.341 78.327 129.341Z" fill="#AEB8C2"/>
<path fill-rule="evenodd" clip-rule="evenodd" d="M124.605 86.676L104.191 61.4928C103.212 60.3074 101.78 59.5898 100.272 59.5898H56.3804C54.8736 59.5898 53.4418 60.3074 52.4622 61.4928L32.0488 86.676V98.122H124.606V86.676H124.605Z" fill="#AEB8C2"/>
<path fill-rule="evenodd" clip-rule="evenodd" d="M49.3447 27.0859H107.309C108.214 27.0859 109.083 27.4464 109.723 28.0879C110.363 28.7295 110.722 29.5997 110.722 30.507V110.341C110.722 111.248 110.363 112.118 109.723 112.76C109.083 113.401 108.214 113.762 107.309 113.762H49.3447C48.4395 113.762 47.5714 113.401 46.9313 112.76C46.2912 112.118 45.9316 111.248 45.9316 110.341V30.507C45.9316 29.5997 46.2912 28.7295 46.9313 28.0879C47.5714 27.4464 48.4395 27.0859 49.3447 27.0859Z" fill="white"/>
<path fill-rule="evenodd" clip-rule="evenodd" d="M56.893 35.5977H99.7582C100.211 35.5977 100.645 35.7779 100.965 36.0987C101.285 36.4194 101.465 36.8545 101.465 37.3082V58.653C101.465 59.1066 101.285 59.5417 100.965 59.8625C100.645 60.1833 100.211 60.3635 99.7582 60.3635H56.893C56.4404 60.3635 56.0063 60.1833 55.6863 59.8625C55.3663 59.5417 55.1865 59.1066 55.1865 58.653V37.3082C55.1865 36.8545 55.3663 36.4194 55.6863 36.0987C56.0063 35.7779 56.4404 35.5977 56.893 35.5977ZM57.1165 69.6491H99.5347C100.047 69.6491 100.537 69.8529 100.899 70.2157C101.261 70.5785 101.465 71.0706 101.465 71.5837C101.465 72.0968 101.261 72.5889 100.899 72.9517C100.537 73.3145 100.047 73.5183 99.5347 73.5183H57.1165C56.6046 73.5183 56.1137 73.3145 55.7518 72.9517C55.3898 72.5889 55.1865 72.0968 55.1865 71.5837C55.1865 71.0706 55.3898 70.5785 55.7518 70.2157C56.1137 69.8529 56.6046 69.6491 57.1165 69.6491ZM57.1165 79.7096H99.5347C100.047 79.7096 100.538 79.9134 100.9 80.2763C101.262 80.6392 101.465 81.1314 101.465 81.6446C101.465 82.1578 101.262 82.65 100.9 83.0129C100.538 83.3758 100.047 83.5796 99.5347 83.5796H57.1165C56.6045 83.5796 56.1135 83.3758 55.7515 83.0129C55.3894 82.65 55.186 82.1578 55.186 81.6446C55.186 81.1314 55.3894 80.6392 55.7515 80.2763C56.1135 79.9134 56.6045 79.7096 57.1165 79.7096ZM124.416 116.915C123.755 119.542 121.432 121.499 118.669 121.499H37.9822C35.2193 121.499 32.8967 119.541 32.2363 116.915C32.1103 116.415 32.0467 115.9 32.0469 115.384V86.6757H54.503C56.9834 86.6757 58.9826 88.7694 58.9826 91.3112V91.3454C58.9826 93.8864 61.0048 95.9382 63.4853 95.9382H93.166C95.6464 95.9382 97.6686 93.8676 97.6686 91.3257V91.3155C97.6686 88.7736 99.6678 86.6748 102.148 86.6748H124.604V115.385C124.604 115.913 124.539 116.425 124.416 116.915Z" fill="#DCE0E6"/>
<path fill-rule="evenodd" clip-rule="evenodd" d="M127.24 28.4734L121.413 30.7399C121.263 30.7982 121.1 30.813 120.942 30.7826C120.784 30.7522 120.638 30.6777 120.521 30.5678C120.404 30.4579 120.319 30.317 120.278 30.1614C120.237 30.0057 120.241 29.8416 120.289 29.6879L121.942 24.3793C119.732 21.8614 118.436 18.791 118.436 15.4777C118.436 6.92934 127.069 0 137.719 0C148.367 0 157.001 6.92934 157.001 15.4777C157.001 24.0261 148.368 30.9554 137.718 30.9554C133.855 30.9554 130.257 30.0437 127.24 28.4734Z" fill="white"/>
<path d="M145.312 18.2722C146.654 18.2722 147.743 17.1943 147.743 15.8646C147.743 14.5349 146.654 13.457 145.312 13.457C143.969 13.457 142.881 14.5349 142.881 15.8646C142.881 17.1943 143.969 18.2722 145.312 18.2722Z" fill="#AEB8C2"/>
<path fill-rule="evenodd" clip-rule="evenodd" d="M132.551 17.9708H127.689L130.162 13.7578L132.551 17.9708ZM135.59 13.7578H139.843V17.9708H135.59V13.7578Z" fill="#AEB8C2"/>
</g>
<defs>
<clipPath id="clip0_1531_148953">
<rect width="157" height="130" fill="white"/>
</clipPath>
</defs>
</svg>
