<svg width="141" height="50" viewBox="0 0 141 50" fill="none" xmlns="http://www.w3.org/2000/svg">
<path d="M16.057 39.7649C16.057 39.7649 25.8866 45.7504 53.1112 38.6719C35.0473 51.5277 12.3516 41.5345 12.3516 41.5345L16.057 39.7649Z" fill="#8292AA"/>
<path d="M19.8136 41.539C19.8136 41.539 38.4436 48.045 53.1624 38.6244C33.1428 42.632 19.1445 37.6875 19.1445 37.6875L19.8136 41.539Z" fill="#A8B3C4"/>
<path d="M16.1597 31.0234C16.1597 31.0234 30.1579 40.7564 53.1624 38.6745C28.5625 43.3587 18.0124 34.5106 18.0124 34.5106L16.1597 31.0234Z" fill="#E0E4EA"/>
<path d="M22.1809 35.0312C22.1809 35.0312 31.9077 41.277 53.1624 38.6225C35.047 45.0765 19.1445 37.6857 19.1445 37.6857L22.1809 35.0312Z" fill="#C8CED9"/>
<path d="M10.0869 35.0311L14.2555 34.4586L16.1597 31.0234L18.0124 34.5106L22.181 35.0311L19.0931 37.7376L19.8136 41.5371L16.0568 39.7675L12.3513 41.5371L13.0718 37.7376L10.0869 35.0311Z" fill="white"/>
<path d="M15.8641 36.9673V36.9779L13.5273 37.7375L11.1904 35.4375L15.8641 36.9673Z" fill="#384252"/>
<path d="M15.8643 36.9766V39.4559L12.9746 40.9963L15.8643 36.9766Z" fill="#384252"/>
<path d="M18.2115 37.7362L18.7644 40.9963L15.8643 36.9766L18.2115 37.7362Z" fill="#5B6B86"/>
<path d="M20.5483 35.4435L15.8643 36.9734L17.3143 34.9688L20.5483 35.4435Z" fill="#5B6B86"/>
<path d="M15.864 32V36.9693L14.4243 34.9647L15.864 32Z" fill="#384252"/>
<path d="M15.8641 36.9734L11.1904 35.4435L14.4244 34.9688L15.8641 36.9734Z" fill="#5B6B86"/>
<path d="M15.8643 36.9766L12.9746 40.9963L13.5275 37.7362L15.8643 36.9766Z" fill="#5B6B86"/>
<path d="M15.8643 36.9766L18.7644 40.9963L15.8643 39.4559V36.9766Z" fill="#242B35"/>
<path d="M20.5483 35.4375L18.2115 37.7375L15.8643 36.9779V36.9673L20.5483 35.4375Z" fill="#384252"/>
<path d="M15.8643 32L17.3143 34.9647L15.8643 36.9693V32Z" fill="#A8B3C4"/>
<path d="M6.58742 14.7824C6.58742 14.7824 29.5919 31.5417 43.899 35.7576C10.7046 28.0025 0 8.79688 0 8.79688L6.58742 14.7824Z" fill="#8292AA"/>
<path d="M26.5556 8.89844C26.5556 8.89844 27.5334 19.6203 43.899 35.7551C20.7916 24.2525 19.8652 14.7798 19.8652 14.7798L26.5556 8.89844Z" fill="#E0E4EA"/>
<path d="M13.1748 19.2053C13.1748 19.2053 17.8066 25.9715 43.8989 35.7565C23.0559 23.8376 19.8651 14.7812 19.8651 14.7812L13.1748 19.2053Z" fill="#C8CED9"/>
<path d="M13.1747 19.2031C13.1747 19.2031 17.8065 25.9693 43.8988 35.7543C18.9902 33.4122 4.94043 23.1067 4.94043 23.1067L13.1747 19.2031Z" fill="#8292AA"/>
<path d="M21.3576 23.1588C21.3576 23.1588 25.2174 27.843 43.8989 35.7022C18.2183 29.0922 13.1748 19.2031 13.1748 19.2031L21.3576 23.1588Z" fill="#A8B3C4"/>
<path d="M0 8.79606L9.16063 7.59897L13.3292 0L17.3949 7.65101L26.5555 8.90016L19.8652 14.7815L21.3576 23.1612L13.1748 19.2056L4.94056 23.1092L6.58742 14.7815L0 8.79606Z" fill="white"/>
<path d="M13.3215 12.8547V12.8788L7.99426 14.6105L2.66699 9.36719L13.3215 12.8547Z" fill="#384252"/>
<path d="M13.3216 12.875V18.5272L6.73389 22.0389L13.3216 12.875Z" fill="#384252"/>
<path d="M18.6728 14.6068L19.9333 22.0389L13.3218 12.875L18.6728 14.6068Z" fill="#5B6B86"/>
<path d="M24.0001 9.36359L13.3218 12.8511L16.6275 8.28125L24.0001 9.36359Z" fill="#5B6B86"/>
<path d="M13.3215 1.52344V12.852L10.0396 8.28208L13.3215 1.52344Z" fill="#384252"/>
<path d="M13.3215 12.8511L2.66699 9.36359L10.0396 8.28125L13.3215 12.8511Z" fill="#5B6B86"/>
<path d="M13.3216 12.875L6.73389 22.0389L7.99436 14.6068L13.3216 12.875Z" fill="#5B6B86"/>
<path d="M13.3218 12.875L19.9333 22.0389L13.3218 18.5272V12.875Z" fill="#242B35"/>
<path d="M24.0001 9.36719L18.6728 14.6105L13.3218 12.8788V12.8547L24.0001 9.36719Z" fill="#384252"/>
<path d="M13.3218 1.52344L16.6275 8.28208L13.3218 12.852V1.52344Z" fill="#A8B3C4"/>
<path d="M122.252 39.4524C122.252 39.4524 112.423 45.4379 85.1982 38.3594C103.314 51.2672 126.009 41.222 126.009 41.222L122.252 39.4524Z" fill="#8292AA"/>
<path d="M118.547 41.2187C118.547 41.2187 99.917 47.7247 85.1982 38.304C105.218 42.3117 119.216 37.3672 119.216 37.3672L118.547 41.2187Z" fill="#A8B3C4"/>
<path d="M122.201 30.7031C122.201 30.7031 108.203 40.436 85.1982 38.3541C109.798 43.0384 120.348 34.1903 120.348 34.1903L122.201 30.7031Z" fill="#E0E4EA"/>
<path d="M116.18 34.7109C116.18 34.7109 106.453 40.9567 85.1982 38.3022C103.314 44.7561 119.216 37.3654 119.216 37.3654L116.18 34.7109Z" fill="#C8CED9"/>
<path d="M128.274 34.7108L124.105 34.1383L122.201 30.7031L120.348 34.1383L116.18 34.7108L119.216 37.4173L118.547 41.2168L122.252 39.4471L126.009 41.2168L125.237 37.4173L128.274 34.7108Z" fill="white"/>
<path d="M121.994 36.6895V36.7008L119.497 37.5126L117 35.0547L121.994 36.6895Z" fill="#384252"/>
<path d="M121.994 36.7031V39.3527L118.906 40.9988L121.994 36.7031Z" fill="#384252"/>
<path d="M124.503 37.5149L125.093 40.9988L121.994 36.7031L124.503 37.5149Z" fill="#5B6B86"/>
<path d="M127 35.062L121.994 36.6969L123.544 34.5547L127 35.062Z" fill="#5B6B86"/>
<path d="M121.995 31.3828V36.6932L120.456 34.551L121.995 31.3828Z" fill="#384252"/>
<path d="M121.994 36.6969L117 35.062L120.456 34.5547L121.994 36.6969Z" fill="#5B6B86"/>
<path d="M121.994 36.7031L118.906 40.9988L119.497 37.5149L121.994 36.7031Z" fill="#5B6B86"/>
<path d="M121.994 36.7031L125.093 40.9988L121.994 39.3527V36.7031Z" fill="#242B35"/>
<path d="M127 35.0547L124.503 37.5126L121.994 36.7008V36.6895L127 35.0547Z" fill="#384252"/>
<path d="M121.994 31.3828L123.544 34.551L121.994 36.6932V31.3828Z" fill="#A8B3C4"/>
<path d="M133.935 14.7772C133.935 14.7772 110.931 31.5366 96.6235 35.7524C129.818 27.9973 140.522 8.84375 140.522 8.84375L133.935 14.7772Z" fill="#8292AA"/>
<path d="M113.967 8.84375C113.967 8.84375 112.989 19.5656 96.6235 35.7004C119.731 24.1978 120.657 14.7772 120.657 14.7772L113.967 8.84375Z" fill="#E0E4EA"/>
<path d="M127.348 19.2079C127.348 19.2079 122.716 25.9741 96.6235 35.7591C117.467 23.8402 120.657 14.8359 120.657 14.8359L127.348 19.2079Z" fill="#C8CED9"/>
<path d="M127.348 19.2031C127.348 19.2031 122.716 25.9693 96.6235 35.7543C121.532 33.4642 135.582 23.1588 135.582 23.1588L127.348 19.2031Z" fill="#8292AA"/>
<path d="M119.165 23.1639C119.165 23.1639 115.305 27.8482 96.6235 35.7074C122.304 29.0453 127.348 19.1562 127.348 19.1562L119.165 23.1639Z" fill="#A8B3C4"/>
<path d="M140.522 8.79606L131.31 7.59897L127.142 0L123.127 7.65101L113.967 8.84811L120.657 14.7815L119.165 23.1612L127.347 19.2056L135.582 23.1092L133.935 14.7815L140.522 8.79606Z" fill="white"/>
<path d="M127.322 12.8626V12.8866L121.995 14.6184L116.667 9.375L127.322 12.8626Z" fill="#384252"/>
<path d="M127.322 12.8828V18.5351L120.734 22.0467L127.322 12.8828Z" fill="#384252"/>
<path d="M132.673 14.6146L133.934 22.0467L127.322 12.8828L132.673 14.6146Z" fill="#5B6B86"/>
<path d="M138.001 9.37141L127.322 12.859L130.628 8.28906L138.001 9.37141Z" fill="#5B6B86"/>
<path d="M127.322 1.53125V12.8598L124.04 8.28989L127.322 1.53125Z" fill="#384252"/>
<path d="M127.322 12.859L116.667 9.37141L124.04 8.28906L127.322 12.859Z" fill="#5B6B86"/>
<path d="M127.322 12.8828L120.734 22.0467L121.995 14.6146L127.322 12.8828Z" fill="#5B6B86"/>
<path d="M127.322 12.8828L133.934 22.0467L127.322 18.5351V12.8828Z" fill="#242B35"/>
<path d="M138.001 9.375L132.673 14.6184L127.322 12.8866V12.8626L138.001 9.375Z" fill="#384252"/>
<path d="M127.322 1.53125L130.628 8.28989L127.322 12.8598V1.53125Z" fill="#A8B3C4"/>
<path d="M69.3176 37.2256V37.258L62.1588 39.5851L55 32.5391L69.3176 37.2256Z" fill="#384252"/>
<path d="M69.3175 37.2578V44.8533L60.4648 49.5722L69.3175 37.2578Z" fill="#384252"/>
<path d="M76.5081 39.5849L78.2019 49.5722L69.3174 37.2578L76.5081 39.5849Z" fill="#5B6B86"/>
<path d="M83.6669 32.5404L69.3174 37.227L73.7597 31.0859L83.6669 32.5404Z" fill="#5B6B86"/>
<path d="M69.3176 22V37.2233L64.9072 31.0823L69.3176 22Z" fill="#384252"/>
<path d="M69.3176 37.227L55 32.5404L64.9073 31.0859L69.3176 37.227Z" fill="#5B6B86"/>
<path d="M69.3175 37.2578L60.4648 49.5722L62.1587 39.5849L69.3175 37.2578Z" fill="#5B6B86"/>
<path d="M69.3174 37.2578L78.2019 49.5722L69.3174 44.8533V37.2578Z" fill="#242B35"/>
<path d="M83.6669 32.5391L76.5081 39.5851L69.3174 37.258V37.2256L83.6669 32.5391Z" fill="#384252"/>
<path d="M69.3174 22L73.7597 31.0823L69.3174 37.2233V22Z" fill="#A8B3C4"/>
</svg>
