<svg width="276" height="180" viewBox="0 0 276 180" fill="none" xmlns="http://www.w3.org/2000/svg">
<rect x="0.5" y="0.5" width="274.517" height="179" stroke="#5D5D5D" stroke-dasharray="120 120"/>
<path d="M110.567 101.355C103.244 94.2252 93.5085 90.2981 83.1527 90.2981C72.7968 90.2981 63.0606 94.2247 55.7379 101.355C48.4153 108.485 44.382 117.965 44.382 128.048C44.3825 129.451 45.5499 130.588 46.9902 130.588H119.316C120.756 130.588 121.923 129.45 121.923 128.048C121.923 117.965 117.891 108.486 110.567 101.355Z" fill="#5D5D5D"/>
<path d="M83.1514 86.3418C93.6253 86.3418 102.116 78.0745 102.116 67.8762C102.116 57.678 93.6253 49.4106 83.1514 49.4106C72.6775 49.4106 64.1868 57.678 64.1868 67.8762C64.1868 78.0745 72.6775 86.3418 83.1514 86.3418Z" fill="#5D5D5D"/>
<path d="M247.787 20C244.043 20 33.9627 20 27.7302 20C23.461 20 20 23.3699 20 27.5268V152.473C20 156.63 23.461 160 27.7302 160C33.7152 160 244.006 160 247.787 160C252.056 160 255.517 156.63 255.517 152.473V27.5268C255.517 23.3699 252.056 20 247.787 20ZM158.115 50.3584H193.536C197.805 50.3584 201.266 53.7283 201.266 57.8852C201.266 62.0421 197.805 65.412 193.536 65.412H158.115C153.846 65.412 150.385 62.0421 150.385 57.8852C150.385 53.7288 153.846 50.3584 158.115 50.3584ZM131.555 144.946H35.4604V35.054H131.555V144.946ZM228.065 129.642H158.115C153.846 129.642 150.385 126.272 150.385 122.115C150.385 117.958 153.846 114.588 158.115 114.588H228.065C232.334 114.588 235.795 117.958 235.795 122.115C235.795 126.272 232.334 129.642 228.065 129.642ZM228.065 97.527H158.115C153.846 97.527 150.385 94.1571 150.385 90.0002C150.385 85.8434 153.846 82.4734 158.115 82.4734H228.065C232.334 82.4734 235.795 85.8434 235.795 90.0002C235.795 94.1571 232.334 97.527 228.065 97.527Z" fill="#5D5D5D"/>
</svg>
